<?xml version="1.0" encoding="UTF-8" standalone="no"?>
<svg
   viewBox="0 0 640 512"
   version="1.1"
   id="svg4"
   sodipodi:docname="hospital.svg"
   inkscape:version="1.2.1 (9c6d41e, 2022-07-14)"
   xmlns:inkscape="http://www.inkscape.org/namespaces/inkscape"
   xmlns:sodipodi="http://sodipodi.sourceforge.net/DTD/sodipodi-0.dtd"
   xmlns="http://www.w3.org/2000/svg"
   xmlns:svg="http://www.w3.org/2000/svg">
  <defs
     id="defs8" />
  <sodipodi:namedview
     id="namedview6"
     pagecolor="#ffffff"
     bordercolor="#111111"
     borderopacity="1"
     inkscape:showpageshadow="0"
     inkscape:pageopacity="0"
     inkscape:pagecheckerboard="1"
     inkscape:deskcolor="#d1d1d1"
     showgrid="false"
     inkscape:zoom="0.4609375"
     inkscape:cx="320"
     inkscape:cy="256"
     inkscape:window-width="1680"
     inkscape:window-height="912"
     inkscape:window-x="0"
     inkscape:window-y="25"
     inkscape:window-maximized="1"
     inkscape:current-layer="svg4" />
  <!--! Font Awesome Free 6.4.0 by @fontawesome - https://fontawesome.com License - https://fontawesome.com/license/free (Icons: CC BY 4.0, Fonts: SIL OFL 1.1, Code: MIT License) Copyright 2023 Fonticons, Inc. -->
  <path
     d="M192 48c0-26.5 21.5-48 48-48H400c26.5 0 48 21.5 48 48V512H368V432c0-26.5-21.5-48-48-48s-48 21.5-48 48v80H192V48zM48 96H160V512H48c-26.5 0-48-21.5-48-48V320H80c8.8 0 16-7.2 16-16s-7.2-16-16-16H0V224H80c8.8 0 16-7.2 16-16s-7.2-16-16-16H0V144c0-26.5 21.5-48 48-48zm544 0c26.5 0 48 21.5 48 48v48H560c-8.8 0-16 7.2-16 16s7.2 16 16 16h80v64H560c-8.8 0-16 7.2-16 16s7.2 16 16 16h80V464c0 26.5-21.5 48-48 48H480V96H592zM312 64c-8.8 0-16 7.2-16 16v24H272c-8.8 0-16 7.2-16 16v16c0 8.8 7.2 16 16 16h24v24c0 8.8 7.2 16 16 16h16c8.8 0 16-7.2 16-16V152h24c8.8 0 16-7.2 16-16V120c0-8.8-7.2-16-16-16H344V80c0-8.8-7.2-16-16-16H312z"
     id="path2"
     style="fill:#202c39;fill-opacity:1" />
</svg>
