<?xml version="1.0" encoding="UTF-8" standalone="no"?>
<svg
   viewBox="0 0 640 512"
   version="1.1"
   id="svg4"
   sodipodi:docname="trailer.svg"
   inkscape:version="1.2.1 (9c6d41e, 2022-07-14)"
   xmlns:inkscape="http://www.inkscape.org/namespaces/inkscape"
   xmlns:sodipodi="http://sodipodi.sourceforge.net/DTD/sodipodi-0.dtd"
   xmlns="http://www.w3.org/2000/svg"
   xmlns:svg="http://www.w3.org/2000/svg">
  <defs
     id="defs8" />
  <sodipodi:namedview
     id="namedview6"
     pagecolor="#ffffff"
     bordercolor="#111111"
     borderopacity="1"
     inkscape:showpageshadow="0"
     inkscape:pageopacity="0"
     inkscape:pagecheckerboard="1"
     inkscape:deskcolor="#d1d1d1"
     showgrid="false"
     inkscape:zoom="0.4609375"
     inkscape:cx="318.91525"
     inkscape:cy="256"
     inkscape:window-width="1309"
     inkscape:window-height="456"
     inkscape:window-x="0"
     inkscape:window-y="25"
     inkscape:window-maximized="0"
     inkscape:current-layer="svg4" />
  <!--! Font Awesome Free 6.4.0 by @fontawesome - https://fontawesome.com License - https://fontawesome.com/license/free (Icons: CC BY 4.0, Fonts: SIL OFL 1.1, Code: MIT License) Copyright 2023 Fonticons, Inc. -->
  <path
     d="M48 32C21.5 32 0 53.5 0 80V336c0 26.5 21.5 48 48 48H65.1c7.8-54.3 54.4-96 110.9-96s103.1 41.7 110.9 96H488h8H608c17.7 0 32-14.3 32-32s-14.3-32-32-32H544V80c0-26.5-21.5-48-48-48H48zM80 96c8.8 0 16 7.2 16 16l0 131.2c-11.4 5.9-22.2 12.9-32 21V112c0-8.8 7.2-16 16-16zm96 128c-5.4 0-10.7 .2-16 .7L160 112c0-8.8 7.2-16 16-16s16 7.2 16 16l0 112.7c-5.3-.5-10.6-.7-16-.7zm80 19.2L256 112c0-8.8 7.2-16 16-16s16 7.2 16 16l0 152.2c-9.8-8.1-20.6-15.2-32-21zM368 96c8.8 0 16 7.2 16 16l0 192c0 8.8-7.2 16-16 16s-16-7.2-16-16l0-192c0-8.8 7.2-16 16-16zm112 16l0 192c0 8.8-7.2 16-16 16s-16-7.2-16-16l0-192c0-8.8 7.2-16 16-16s16 7.2 16 16zM176 480a80 80 0 1 0 0-160 80 80 0 1 0 0 160zm0-112a32 32 0 1 1 0 64 32 32 0 1 1 0-64z"
     id="path2"
     style="fill:#202c39;fill-opacity:1" />
</svg>
