<?xml version="1.0" encoding="UTF-8" standalone="no"?>
<svg
   viewBox="0 0 512 512"
   version="1.1"
   id="svg4"
   sodipodi:docname="burger.svg"
   inkscape:version="1.2.1 (9c6d41e, 2022-07-14)"
   xmlns:inkscape="http://www.inkscape.org/namespaces/inkscape"
   xmlns:sodipodi="http://sodipodi.sourceforge.net/DTD/sodipodi-0.dtd"
   xmlns="http://www.w3.org/2000/svg"
   xmlns:svg="http://www.w3.org/2000/svg">
  <defs
     id="defs8" />
  <sodipodi:namedview
     id="namedview6"
     pagecolor="#ffffff"
     bordercolor="#111111"
     borderopacity="1"
     inkscape:showpageshadow="0"
     inkscape:pageopacity="0"
     inkscape:pagecheckerboard="1"
     inkscape:deskcolor="#d1d1d1"
     showgrid="false"
     inkscape:zoom="0.4609375"
     inkscape:cx="256"
     inkscape:cy="256"
     inkscape:window-width="1309"
     inkscape:window-height="456"
     inkscape:window-x="0"
     inkscape:window-y="25"
     inkscape:window-maximized="0"
     inkscape:current-layer="svg4" />
  <!--! Font Awesome Free 6.4.0 by @fontawesome - https://fontawesome.com License - https://fontawesome.com/license/free (Icons: CC BY 4.0, Fonts: SIL OFL 1.1, Code: MIT License) Copyright 2023 Fonticons, Inc. -->
  <path
     d="M61.1 224C45 224 32 211 32 194.9c0-1.9 .2-3.7 .6-5.6C37.9 168.3 78.8 32 256 32s218.1 136.3 223.4 157.3c.5 1.9 .6 3.7 .6 5.6c0 16.1-13 29.1-29.1 29.1H61.1zM144 128a16 16 0 1 0 -32 0 16 16 0 1 0 32 0zm240 16a16 16 0 1 0 0-32 16 16 0 1 0 0 32zM272 96a16 16 0 1 0 -32 0 16 16 0 1 0 32 0zM16 304c0-26.5 21.5-48 48-48H448c26.5 0 48 21.5 48 48s-21.5 48-48 48H64c-26.5 0-48-21.5-48-48zm16 96c0-8.8 7.2-16 16-16H464c8.8 0 16 7.2 16 16v16c0 35.3-28.7 64-64 64H96c-35.3 0-64-28.7-64-64V400z"
     id="path2"
     style="fill:#202c39;fill-opacity:1" />
</svg>
